<?xml version="1.0" encoding="UTF-8" standalone="no"?>
<!DOCTYPE svg PUBLIC "-//W3C//DTD SVG 1.1//EN"
 "http://www.w3.org/Graphics/SVG/1.1/DTD/svg11.dtd">
<!-- Generated by graphviz version 2.26.0 (20091210.2329)
 -->
<!-- Title: G Pages: 1 -->
<svg width="718pt" height="392pt"
 viewBox="0.00 0.00 718.00 392.00" xmlns="http://www.w3.org/2000/svg" xmlns:xlink="http://www.w3.org/1999/xlink">
<g id="graph1" class="graph" transform="scale(1 1) rotate(0) translate(4 388)">
<title>G</title>
<polygon fill="white" stroke="white" points="-4,5 -4,-388 715,-388 715,5 -4,5"/>
<g id="graph2" class="cluster"><title>cluster_MichelfTest</title>
<polyline fill="none" stroke="gray" points="336,-8 690,-8 "/>
<path fill="none" stroke="gray" d="M690,-8C696,-8 702,-14 702,-20"/>
<polyline fill="none" stroke="gray" points="702,-20 702,-203 "/>
<path fill="none" stroke="gray" d="M702,-203C702,-209 696,-215 690,-215"/>
<polyline fill="none" stroke="gray" points="690,-215 336,-215 "/>
<path fill="none" stroke="gray" d="M336,-215C330,-215 324,-209 324,-203"/>
<polyline fill="none" stroke="gray" points="324,-203 324,-20 "/>
<path fill="none" stroke="gray" d="M324,-20C324,-14 330,-8 336,-8"/>
<text text-anchor="middle" x="513" y="-201.1" font-family="Times Roman,serif" font-size="11.00" fill="gray">MichelfTest</text>
</g>
<g id="graph3" class="cluster"><title>cluster_MichelfTest\Markdown</title>
<polyline fill="none" stroke="gray" points="344,-16 682,-16 "/>
<path fill="none" stroke="gray" d="M682,-16C688,-16 694,-22 694,-28"/>
<polyline fill="none" stroke="gray" points="694,-28 694,-172 "/>
<path fill="none" stroke="gray" d="M694,-172C694,-178 688,-184 682,-184"/>
<polyline fill="none" stroke="gray" points="682,-184 344,-184 "/>
<path fill="none" stroke="gray" d="M344,-184C338,-184 332,-178 332,-172"/>
<polyline fill="none" stroke="gray" points="332,-172 332,-28 "/>
<path fill="none" stroke="gray" d="M332,-28C332,-22 338,-16 344,-16"/>
<text text-anchor="middle" x="513" y="-170.1" font-family="Times Roman,serif" font-size="11.00" fill="gray">Markdown</text>
</g>
<g id="graph4" class="cluster"><title>cluster_MichelfTest\Markdown\Parser</title>
<polyline fill="none" stroke="gray" points="352,-24 674,-24 "/>
<path fill="none" stroke="gray" d="M674,-24C680,-24 686,-30 686,-36"/>
<polyline fill="none" stroke="gray" points="686,-36 686,-141 "/>
<path fill="none" stroke="gray" d="M686,-141C686,-147 680,-153 674,-153"/>
<polyline fill="none" stroke="gray" points="674,-153 352,-153 "/>
<path fill="none" stroke="gray" d="M352,-153C346,-153 340,-147 340,-141"/>
<polyline fill="none" stroke="gray" points="340,-141 340,-36 "/>
<path fill="none" stroke="gray" d="M340,-36C340,-30 346,-24 352,-24"/>
<text text-anchor="middle" x="513" y="-139.1" font-family="Times Roman,serif" font-size="11.00" fill="gray">Parser</text>
</g>
<g id="graph6" class="cluster"><title>cluster_Michelf</title>
<polyline fill="none" stroke="gray" points="364,-223 676,-223 "/>
<path fill="none" stroke="gray" d="M676,-223C682,-223 688,-229 688,-235"/>
<polyline fill="none" stroke="gray" points="688,-235 688,-364 "/>
<path fill="none" stroke="gray" d="M688,-364C688,-370 682,-376 676,-376"/>
<polyline fill="none" stroke="gray" points="676,-376 364,-376 "/>
<path fill="none" stroke="gray" d="M364,-376C358,-376 352,-370 352,-364"/>
<polyline fill="none" stroke="gray" points="352,-364 352,-235 "/>
<path fill="none" stroke="gray" d="M352,-235C352,-229 358,-223 364,-223"/>
<text text-anchor="middle" x="520" y="-362.1" font-family="Times Roman,serif" font-size="11.00" fill="gray">Michelf</text>
</g>
<g id="graph7" class="cluster"><title>cluster_Michelf\Markdown</title>
<polyline fill="none" stroke="gray" points="372,-231 668,-231 "/>
<path fill="none" stroke="gray" d="M668,-231C674,-231 680,-237 680,-243"/>
<polyline fill="none" stroke="gray" points="680,-243 680,-333 "/>
<path fill="none" stroke="gray" d="M680,-333C680,-339 674,-345 668,-345"/>
<polyline fill="none" stroke="gray" points="668,-345 372,-345 "/>
<path fill="none" stroke="gray" d="M372,-345C366,-345 360,-339 360,-333"/>
<polyline fill="none" stroke="gray" points="360,-333 360,-243 "/>
<path fill="none" stroke="gray" d="M360,-243C360,-237 366,-231 372,-231"/>
<text text-anchor="middle" x="520" y="-331.1" font-family="Times Roman,serif" font-size="11.00" fill="gray">Markdown</text>
</g>
<g id="graph8" class="cluster"><title>cluster_Michelf\Markdown\Parser</title>
<polyline fill="none" stroke="gray" points="380,-239 660,-239 "/>
<path fill="none" stroke="gray" d="M660,-239C666,-239 672,-245 672,-251"/>
<polyline fill="none" stroke="gray" points="672,-251 672,-302 "/>
<path fill="none" stroke="gray" d="M672,-302C672,-308 666,-314 660,-314"/>
<polyline fill="none" stroke="gray" points="660,-314 380,-314 "/>
<path fill="none" stroke="gray" d="M380,-314C374,-314 368,-308 368,-302"/>
<polyline fill="none" stroke="gray" points="368,-302 368,-251 "/>
<path fill="none" stroke="gray" d="M368,-251C368,-245 374,-239 380,-239"/>
<text text-anchor="middle" x="520" y="-300.1" font-family="Times Roman,serif" font-size="11.00" fill="gray">Parser</text>
</g>
<!-- \\MichelfTest\\Markdown\\Parser\\CoreParserTest -->
<g id="node4" class="node"><title>\\MichelfTest\\Markdown\\Parser\\CoreParserTest</title>
<a xlink:href="tests.MichelfTest.Markdown.Parser.CoreTest.html" xlink:title="CoreParserTest" target="_parent">
<polygon fill="none" stroke="black" points="675,-122 563,-122 563,-86 675,-86 675,-122"/>
<text text-anchor="middle" x="619" y="-101.1" font-family="Courier,monospace" font-size="11.00">CoreParserTest</text>
</a>
</g>
<!-- \\MichelfTest\\Markdown\\Parser\\AbstractParserTest -->
<g id="node5" class="node"><title>\\MichelfTest\\Markdown\\Parser\\AbstractParserTest</title>
<a xlink:href="tests.MichelfTest.Markdown.Parser.AbstractParserTest.html" xlink:title="«abstract»&lt;br/&gt;AbstractParserTest" target="_parent">
<polygon fill="none" stroke="black" points="488,-95 348,-95 348,-59 488,-59 488,-95"/>
<text text-anchor="start" x="384" y="-82.4333" font-family="Courier,monospace" font-size="11.00">«abstract»</text>
<text text-anchor="start" x="356.5" y="-69.2333" font-family="Courier,monospace" font-size="11.00">AbstractParserTest</text>
</a>
</g>
<!-- \\MichelfTest\\Markdown\\Parser\\CoreParserTest&#45;&gt;\\MichelfTest\\Markdown\\Parser\\AbstractParserTest -->
<g id="edge10" class="edge"><title>\\MichelfTest\\Markdown\\Parser\\CoreParserTest&#45;&gt;\\MichelfTest\\Markdown\\Parser\\AbstractParserTest</title>
<path fill="none" stroke="black" d="M562.743,-96.4431C542.791,-93.763 519.933,-90.6925 498.365,-87.7953"/>
<polygon fill="none" stroke="black" points="498.608,-84.2966 488.231,-86.434 497.676,-91.2343 498.608,-84.2966"/>
</g>
<!-- \\PHPUnit_Framework_TestCase -->
<g id="node16" class="node"><title>\\PHPUnit_Framework_TestCase</title>
<ellipse fill="none" stroke="black" cx="138" cy="-77" rx="137.886" ry="19.0919"/>
<text text-anchor="middle" x="138" y="-73.9" font-family="Times Roman,serif" font-size="14.00" fill="gray">\PHPUnit_Framework_TestCase</text>
</g>
<!-- \\MichelfTest\\Markdown\\Parser\\AbstractParserTest&#45;&gt;\\PHPUnit_Framework_TestCase -->
<g id="edge12" class="edge"><title>\\MichelfTest\\Markdown\\Parser\\AbstractParserTest&#45;&gt;\\PHPUnit_Framework_TestCase</title>
<path fill="none" stroke="black" d="M347.706,-77C328.826,-77 307.676,-77 286.268,-77"/>
<polygon fill="none" stroke="black" points="286.085,-73.5001 276.085,-77 286.085,-80.5001 286.085,-73.5001"/>
</g>
<!-- \\MichelfTest\\Markdown\\Parser\\ExtraParserTest -->
<g id="node6" class="node"><title>\\MichelfTest\\Markdown\\Parser\\ExtraParserTest</title>
<a xlink:href="tests.MichelfTest.Markdown.Parser.ExtraTest.html" xlink:title="ExtraParserTest" target="_parent">
<polygon fill="none" stroke="black" points="678,-68 560,-68 560,-32 678,-32 678,-68"/>
<text text-anchor="middle" x="619" y="-47.1" font-family="Courier,monospace" font-size="11.00">ExtraParserTest</text>
</a>
</g>
<!-- \\MichelfTest\\Markdown\\Parser\\ExtraParserTest&#45;&gt;\\MichelfTest\\Markdown\\Parser\\AbstractParserTest -->
<g id="edge14" class="edge"><title>\\MichelfTest\\Markdown\\Parser\\ExtraParserTest&#45;&gt;\\MichelfTest\\Markdown\\Parser\\AbstractParserTest</title>
<path fill="none" stroke="black" d="M559.781,-57.9549C540.474,-60.5482 518.708,-63.472 498.131,-66.2361"/>
<polygon fill="none" stroke="black" points="497.586,-62.7778 488.141,-67.578 498.518,-69.7155 497.586,-62.7778"/>
</g>
<!-- \\Michelf\\Markdown\\Parser\\CoreParser -->
<g id="node11" class="node"><title>\\Michelf\\Markdown\\Parser\\CoreParser</title>
<a xlink:href="library.Michelf.Markdown.Parser.CoreParser.html" xlink:title="CoreParser" target="_parent">
<polygon fill="none" stroke="black" points="460,-283 376,-283 376,-247 460,-247 460,-283"/>
<text text-anchor="middle" x="418" y="-262.1" font-family="Courier,monospace" font-size="11.00">CoreParser</text>
</a>
</g>
<!-- \\Michelf\\Markdown\\Parser\\ExtraParser -->
<g id="node12" class="node"><title>\\Michelf\\Markdown\\Parser\\ExtraParser</title>
<a xlink:href="library.Michelf.Markdown.Parser.ExtraParser.html" xlink:title="ExtraParser" target="_parent">
<polygon fill="none" stroke="black" points="664,-283 574,-283 574,-247 664,-247 664,-283"/>
<text text-anchor="middle" x="619" y="-262.1" font-family="Courier,monospace" font-size="11.00">ExtraParser</text>
</a>
</g>
<!-- \\Michelf\\Markdown\\Parser\\ExtraParser&#45;&gt;\\Michelf\\Markdown\\Parser\\CoreParser -->
<g id="edge16" class="edge"><title>\\Michelf\\Markdown\\Parser\\ExtraParser&#45;&gt;\\Michelf\\Markdown\\Parser\\CoreParser</title>
<path fill="none" stroke="black" d="M573.892,-265C543.186,-265 502.447,-265 470.317,-265"/>
<polygon fill="none" stroke="black" points="470.211,-261.5 460.211,-265 470.211,-268.5 470.211,-261.5"/>
</g>
</g>
</svg>
